{"title":"Barbarossa.2009.DVDRiP.XViD.Optional.NORDIC.Zen_Bud","uid":5843140,"size":1488400703,"categoryP":"video","categoryS":"movies","magnet":"?xt=urn:btih:468176141e52b3838b0967011c730edb67c4b114&amp;dn=Barbarossa.2009.DVDRiP.XViD.Optional.NORDIC.Zen_Bud&amp;tr=udp%3A%2F%2Ftracker.openbittorrent.com%3A80&amp;tr=udp%3A%2F%2Fopen.demonii.com%3A1337&amp;tr=udp%3A%2F%2Ftracker.coppersurfer.tk%3A6969&amp;tr=udp%3A%2F%2Fexodus.desync.com%3A6969","seeders":0,"leechers":1,"uploader":"Zen_Bud","files":-1,"time":1285051750,"description":"\nComplete name                    : Barbarossa.2009.avi\nFormat                           : AVI\nFile size                        : 1.37 GiB\nDuration                         : 2h 3mn\nOverall bit rate                 : 1 587 Kbps\n\nVideo\n\nFormat                           : MPEG-4 Visual\nCodec ID/Hint                    : XviD\nDuration                         : 2h 3mn\nBit rate                         : 1 446 Kbps\nWidth                            : 700 pixels\nHeight                           : 436 pixels\nDisplay aspect ratio             : 2.25:1\nStream size                      : 1.25 GiB (91%)\nWriting library                  : XviD 1.1.2 (UTC 2006-11-01)\n\nAudio\n\nFormat                           : MPEG Audio\nCodec ID/Hint                    : MP3\nDuration                         : 2h 3mn\nBit rate                         : 128 Kbps\nChannel(s)                       : 2 channels\nSampling rate                    : 48.0 KHz\nStream size                      : 113 MiB (8%)\n\n\nText #1\nLanguage                         : Norwegian\n\nText #2\nLanguage                         : Danish\n\nText #3\nLanguage                         : Finnish\n\nText #4\nLanguage                         : Swedish","torrent":{"xt":"urn:btih:468176141e52b3838b0967011c730edb67c4b114","amp;dn":"Barbarossa.2009.DVDRiP.XViD.Optional.NORDIC.Zen_Bud","amp;tr":["udp%3A%2F%2Ftracker.openbittorrent.com%3A80","udp%3A%2F%2Fopen.demonii.com%3A1337","udp%3A%2F%2Ftracker.coppersurfer.tk%3A6969","udp%3A%2F%2Fexodus.desync.com%3A6969"],"infoHash":"468176141e52b3838b0967011c730edb67c4b114","infoHashBuffer":{"type":"Buffer","data":[70,129,118,20,30,82,179,131,139,9,103,1,28,115,14,219,103,196,177,20]},"announce":[],"urlList":[]}}